<svg width="224" height="234" viewBox="0 0 224 234" fill="none" xmlns="http://www.w3.org/2000/svg">
<path d="M74.1352 35.8966C74.7693 36.9139 75.1599 38.0755 75.2777 39.2946L82.6861 115.976C83.3803 123.16 76.0086 128.763 69.5435 125.964L31.3302 109.421L37.7102 175.461L22.0953 159.156L10.035 179.637L1.20794 88.2743C0.504237 80.9878 8.07761 75.3721 14.5549 78.3778L53.6324 96.5123L48.4843 43.2278C48.3733 42.0784 48.508 40.9054 48.8784 39.7875L58.4849 10.7918L74.1352 35.8966ZM58.2262 14.4012L54.3694 26.5316L55.3985 27.035L57.2069 24.405L58.1625 26.4069L58.8654 27.8824L59.2474 26.2926L59.9093 23.5381L61.4956 25.926L62.5415 27.4999L62.5758 23.2511L62.7195 23.3538C62.7279 23.5534 62.787 23.7536 62.9033 23.9334L72.0819 38.1301C68.3777 40.9752 64.0691 42.1039 60.1141 42.3275C56.1026 42.5542 52.5299 41.846 50.4799 41.1296C49.8762 40.9188 49.2153 41.2376 49.0044 41.8413C48.7936 42.445 49.1124 43.1058 49.7161 43.3168C52.0427 44.1299 55.9181 44.8845 60.2438 44.6402C64.5787 44.3952 69.4413 43.141 73.6443 39.8527C74.5421 39.1499 74.6939 37.904 74.1087 36.9989L64.8481 22.6756C64.7827 22.5745 64.7038 22.4872 64.6158 22.414L59.2626 14.2592L58.595 13.242L58.2262 14.4012Z" fill="white"/>
<path d="M127.69 54.3261L104.445 56.6971L106.453 71.954L114.581 70.8839L116.316 73.1274L125.812 85.4076L108.353 86.4015L110.716 104.359L129.259 101.417L123.474 117.77L122.957 119.229L90.5023 123.5L80.0929 44.3799L126.944 38.216L127.69 54.3261Z" fill="white"/>
<path d="M138.736 116.273L125.658 118.542L134.67 93.0753L118.148 71.7099L133.858 68.9841L138.895 77.1868L141.528 81.946L142.577 76.6301L144.822 67.0816L157.86 64.8194L149.12 88.0627L166.526 111.451L151.056 114.136L144.882 104.118L142.523 99.5162L141.414 104.719L138.736 116.273Z" fill="white"/>
<path d="M173.168 112.207L166.421 60.0918L152.976 61.8324L151.005 46.6058L197.317 40.6106L199.288 55.8372L185.843 57.5777L192.589 109.693L173.168 112.207Z" fill="white"/>
<path d="M99.8315 186.659C97.4749 187.049 95.2358 187.2 93.1143 187.111C91.0284 187.048 89.2411 186.793 87.7523 186.348C86.2635 185.903 85.0247 185.448 84.0357 184.983C83.0774 184.513 82.2568 184.02 81.5739 183.504L80.8737 172.158C82.4073 173.634 84.334 174.824 86.6536 175.729C88.9681 176.603 91.3496 176.838 93.7981 176.432C96.2465 176.027 97.9632 175.475 98.9482 174.777C99.9638 174.074 100.358 173.034 100.129 171.657C99.8861 170.188 99.0508 169.037 97.6236 168.204C96.227 167.367 93.8921 166.464 90.6188 165.497C89.4258 165.129 88.4112 164.794 87.5751 164.492C86.7339 164.16 85.587 163.595 84.1342 162.798C82.7071 161.965 81.5043 161.064 80.5261 160.094C79.5428 159.093 78.6006 157.771 77.6995 156.128C76.7934 154.454 76.173 152.608 75.8384 150.588C74.0285 139.662 79.2905 133.177 91.6245 131.134C93.5832 130.809 95.455 130.72 97.2399 130.864C99.0503 130.973 100.486 131.191 101.546 131.519C102.607 131.846 103.591 132.281 104.498 132.822C105.431 133.328 106.027 133.701 106.287 133.941C106.542 134.15 106.728 134.324 106.845 134.462L106.017 143.702C104.59 142.492 102.918 141.7 101.001 141.325C99.1093 140.916 97.3524 140.845 95.7303 141.114C91.8128 141.763 90.0569 143.311 90.4625 145.76C90.5689 146.402 90.7877 146.964 91.1187 147.443C91.4497 147.923 91.9262 148.332 92.548 148.669C93.1699 149.006 93.7357 149.29 94.2455 149.52C94.7859 149.745 95.5073 150.018 96.4097 150.34C97.3376 150.627 98.0386 150.872 98.5127 151.077C103.295 152.234 106.943 153.941 109.455 156.198C111.998 158.45 113.578 161.442 114.197 165.176C115.2 171.236 114.466 176.106 111.994 179.786C109.548 183.43 105.493 185.721 99.8315 186.659Z" fill="white"/>
<path d="M150.818 176.257L120.055 181.477L111.426 130.625L141.538 125.515L142.408 135.902L127.452 137.994L129.116 147.8L140.831 145.812L142.554 155.965L130.691 157.085L132.65 168.627L148.977 165.41L150.818 176.257Z" fill="white"/>
<path d="M167.453 173.537L154.436 175.991L148.9 124.547L169.183 120.722L176.194 137.001L179.546 145.281L179.575 136.408L179.735 118.732L197.813 115.323L211.09 165.308L197.64 167.844L189.815 138.463L187.225 127.576L187.344 164.546L176.057 166.674L161.363 132.452L163.175 143.486L167.453 173.537Z" fill="white"/>
<circle cx="24.4621" cy="182.725" r="9.84429" transform="rotate(-21.9582 24.4621 182.725)" fill="white"/>
<circle cx="40.7378" cy="196.768" r="5.79076" transform="rotate(-21.9582 40.7378 196.768)" fill="white"/>
<circle cx="56.8839" cy="202.745" r="3.47446" transform="rotate(-21.9582 56.8839 202.745)" fill="white"/>
</svg>
