<svg width="163" height="48" viewBox="0 0 163 48" fill="none" xmlns="http://www.w3.org/2000/svg">
<path d="M162.5 24C162.5 37.2548 151.755 48 138.5 48C125.245 48 0 42.7548 0 29.5C0 16.2452 125.245 0 138.5 0C151.755 0 162.5 10.7452 162.5 24Z" fill="#090909"/>
<path d="M148.736 25.0606C149.322 24.4748 149.322 23.525 148.736 22.9392L139.19 13.3934C138.604 12.8076 137.654 12.8076 137.069 13.3934C136.483 13.9792 136.483 14.9289 137.069 15.5147L145.554 23.9999L137.069 32.4852C136.483 33.071 136.483 34.0208 137.069 34.6066C137.654 35.1924 138.604 35.1923 139.19 34.6066L148.736 25.0606ZM131.5 24L131.5 25.5L147.675 25.4999L147.675 23.9999L147.675 22.4999L131.5 22.5L131.5 24Z" fill="#EEEEEE"/>
</svg>
